<svg id="Layer_1" data-name="Layer 1" xmlns="http://www.w3.org/2000/svg" viewBox="0 0 739.2 739.2"><defs><style>.cls-1{fill:#60cfe2;}.cls-2{fill:#fff;}</style></defs><title>weebster_logo</title><circle class="cls-1" cx="369.6" cy="369.6" r="369.6"/><path class="cls-2" d="M137.38,421.73l-2.32-100.89L97.4,421.73H68.84L65.64,286.28Q51.7,291.51,43.9,302.64t-7.79,27.69a35.25,35.25,0,0,0,.44,6.15,26.78,26.78,0,0,0,.92,3.78,13.66,13.66,0,0,0,.92,2.18,2.86,2.86,0,0,1,.44,1.36,36.82,36.82,0,0,1-9.1-1,16.56,16.56,0,0,1-6.63-3.24A14,14,0,0,1,19,333.63a25.66,25.66,0,0,1-1.4-9.1,31.51,31.51,0,0,1,2.86-13,48.43,48.43,0,0,1,7.84-12.1A68.74,68.74,0,0,1,40,288.9,86.37,86.37,0,0,1,70.53,275a72.25,72.25,0,0,1,16.7-2q2.23,0,4.12.1t3.82,0.29l1.74,122L138.64,274h25.17l1.74,121.41L207.19,274h13.94L165.95,421.73H137.38Z"/><path class="cls-2" d="M290.07,386.2a113.36,113.36,0,0,1-9.54,13.55,71.64,71.64,0,0,1-12.1,11.72,59.85,59.85,0,0,1-14.91,8.28,49.66,49.66,0,0,1-18,3.15,42.6,42.6,0,0,1-12.78-1.79,25.23,25.23,0,0,1-9.78-5.57,24.48,24.48,0,0,1-6.24-9.73,42,42,0,0,1-2.18-14.38,86.7,86.7,0,0,1,1.16-13.17,100.86,100.86,0,0,1,3.68-15.3,86.73,86.73,0,0,1,6.68-15.39,60.58,60.58,0,0,1,10.07-13.51A46.57,46.57,0,0,1,240,324.48a43.08,43.08,0,0,1,18.11-3.63,31.19,31.19,0,0,1,10.89,1.6,17.59,17.59,0,0,1,6.68,4.21,14,14,0,0,1,3.39,6.05,27.45,27.45,0,0,1,.92,7.12,34.77,34.77,0,0,1-3.78,16,42.71,42.71,0,0,1-10.12,12.92,52.38,52.38,0,0,1-14.57,8.91,53.9,53.9,0,0,1-17.14,4q-0.19,2.23-.34,4.21t-0.15,3.73a31,31,0,0,0,.92,8.28,11.7,11.7,0,0,0,2.71,5.08,9.59,9.59,0,0,0,4.45,2.57,23.86,23.86,0,0,0,6.24.73,34.66,34.66,0,0,0,10.7-1.55,37.42,37.42,0,0,0,9-4.26,50.28,50.28,0,0,0,7.89-6.39q3.73-3.68,7.5-7.84h6.78Zm-54.12-14A26.56,26.56,0,0,0,246.79,369a33,33,0,0,0,9.2-7.31,36.29,36.29,0,0,0,6.34-10.26,31.11,31.11,0,0,0,2.37-12,13.82,13.82,0,0,0-1.06-5.91,3.91,3.91,0,0,0-3.87-2.23q-3.78,0-7.41,3.63a41.67,41.67,0,0,0-6.83,9.44,81,81,0,0,0-5.66,13.12A116.1,116.1,0,0,0,235.95,372.16Z"/><path class="cls-2" d="M366.17,386.2a113.48,113.48,0,0,1-9.54,13.55,71.63,71.63,0,0,1-12.1,11.72,59.85,59.85,0,0,1-14.91,8.28,49.66,49.66,0,0,1-18,3.15,42.6,42.6,0,0,1-12.78-1.79,25.23,25.23,0,0,1-9.78-5.57,24.48,24.48,0,0,1-6.24-9.73,42,42,0,0,1-2.18-14.38,86.7,86.7,0,0,1,1.16-13.17,100.86,100.86,0,0,1,3.68-15.3,86.73,86.73,0,0,1,6.68-15.39,60.58,60.58,0,0,1,10.07-13.51,46.57,46.57,0,0,1,13.85-9.59,43.08,43.08,0,0,1,18.1-3.63,31.19,31.19,0,0,1,10.89,1.6,17.6,17.6,0,0,1,6.68,4.21,14,14,0,0,1,3.39,6.05,27.45,27.45,0,0,1,.92,7.12,34.77,34.77,0,0,1-3.78,16,42.72,42.72,0,0,1-10.12,12.92,52.39,52.39,0,0,1-14.57,8.91,53.9,53.9,0,0,1-17.14,4q-0.19,2.23-.34,4.21T310,389.59a31,31,0,0,0,.92,8.28,11.7,11.7,0,0,0,2.71,5.08,9.59,9.59,0,0,0,4.45,2.57,23.86,23.86,0,0,0,6.24.73,34.67,34.67,0,0,0,10.7-1.55,37.42,37.42,0,0,0,9-4.26,50.28,50.28,0,0,0,7.89-6.39q3.73-3.68,7.5-7.84h6.78Zm-54.12-14A26.56,26.56,0,0,0,322.89,369a33,33,0,0,0,9.2-7.31,36.27,36.27,0,0,0,6.34-10.26,31.11,31.11,0,0,0,2.37-12,13.83,13.83,0,0,0-1.06-5.91,3.91,3.91,0,0,0-3.87-2.23q-3.78,0-7.41,3.63a41.67,41.67,0,0,0-6.83,9.44A81,81,0,0,0,316,357.49,116.1,116.1,0,0,0,312,372.16Z"/><path class="cls-2" d="M526.11,386.2a94.18,94.18,0,0,1-14,13.7q-7.07,5.47-13.46,9.54a28,28,0,0,1-6,6.34,32,32,0,0,1-7.17,4.16,35.65,35.65,0,0,1-7.89,2.27,49.46,49.46,0,0,1-8.13.68q-8.91,0-14.28-2.42a21.94,21.94,0,0,1-8.37-6.2,19.88,19.88,0,0,1-4-8.47,45.69,45.69,0,0,1-1-9.25,23.39,23.39,0,0,1,1.26-7.89,19.13,19.13,0,0,1,3.29-6A14.94,14.94,0,0,1,451,379a11,11,0,0,1,5.13-1.31q10.36,0,10.36,8.33a8.58,8.58,0,0,1-2.71,6.34A9.28,9.28,0,0,1,457,395a10.17,10.17,0,0,1-3.15-.48,3.77,3.77,0,0,1-2.28-2.13q0,7,2.86,10.89t8.67,3.92a15.26,15.26,0,0,0,5.62-.92,8.66,8.66,0,0,0,3.87-3,14.52,14.52,0,0,0,2.28-5.66,44.46,44.46,0,0,0,.73-8.76q0-2.71-.15-5.23t-0.48-5.47q-0.34-3-.73-6.63t-0.87-8.76q-0.49-5.08-1-11.86t-1.11-16A79,79,0,0,1,456.4,352a52.11,52.11,0,0,1-16.56,9.59,102.31,102.31,0,0,1-1.94,12.88,81.35,81.35,0,0,1-4.21,13.7,70.74,70.74,0,0,1-7,13.07,52.14,52.14,0,0,1-10.07,11.09A46.39,46.39,0,0,1,403.1,420a49.72,49.72,0,0,1-17.38,2.86q-13.75,0-20.72-6.68t-7-18.69a56,56,0,0,1,.29-5.66,34.52,34.52,0,0,1,1.07-5.66l21.2-99.34,29.34-4-9.49,44.63a56.3,56.3,0,0,1,5.37-3,31.79,31.79,0,0,1,4.31-1.69,18.11,18.11,0,0,1,3.53-.73q1.6-.15,3-0.15a24.85,24.85,0,0,1,8.91,1.55,18,18,0,0,1,7.17,5.08,26.5,26.5,0,0,1,5,9.2,54.6,54.6,0,0,1,2.37,13.89q7.16-1.35,14.72-9.39t15.78-22L500,316.49q0.58,12.88,1.11,22.32t1,16.36q0.48,6.92.87,11.76t0.73,8.57q0.34,3.73.48,6.78t0.14,6.34a42.6,42.6,0,0,1-.58,7.36,65.54,65.54,0,0,0,7.65-4.89q3.58-2.66,6.39-4.89h8.33ZM387,390a20.4,20.4,0,0,0-.58,4.55q0,9.2,10.46,9.2a11.41,11.41,0,0,0,8-3.68,36,36,0,0,0,6.78-9.59,73.7,73.7,0,0,0,5.08-13.22,94.05,94.05,0,0,0,3-14.57q-3.19-2.32-3.19-7.94a14.77,14.77,0,0,1,.68-4.6A11.07,11.07,0,0,1,419,346.6,19,19,0,0,0,415.6,339a7.39,7.39,0,0,0-6.05-3q-1.07,0-2.71.15a21.89,21.89,0,0,0-3.39.58,19.19,19.19,0,0,0-3.24,1.11,6.4,6.4,0,0,0-2.37,1.74Z"/><path class="cls-2" d="M579.08,386.2a80.82,80.82,0,0,1-6.25,13.94,57.64,57.64,0,0,1-7.17,10,39,39,0,0,1-15.25,10.46,34.88,34.88,0,0,1-7,1.84,42,42,0,0,1-6,.48,25,25,0,0,1-8.33-1.36,17.32,17.32,0,0,1-6.73-4.26,20.4,20.4,0,0,1-4.5-7.36,31.1,31.1,0,0,1-1.65-10.75,50.83,50.83,0,0,1,.39-6q0.39-3.24,1.16-7l11.91-55.67h-6.58l1.65-7.94h6.49l6-27.4,29.34-4-6.78,31.37h11.91l-1.55,7.94H558.26L545.58,390a16.86,16.86,0,0,0-.63,3.24q-0.15,1.6-.15,3.15,0,4.16,1.94,5.76t6.1,1.6a13.1,13.1,0,0,0,5.66-1.31,18.23,18.23,0,0,0,5.08-3.63,25.83,25.83,0,0,0,4.16-5.57,35.13,35.13,0,0,0,3-7h8.33Z"/><path class="cls-2" d="M653.63,386.2a113.48,113.48,0,0,1-9.54,13.55A71.63,71.63,0,0,1,632,411.47a59.85,59.85,0,0,1-14.91,8.28,49.66,49.66,0,0,1-18,3.15,42.6,42.6,0,0,1-12.78-1.79,25.23,25.23,0,0,1-9.78-5.57,24.49,24.49,0,0,1-6.25-9.73,42,42,0,0,1-2.18-14.38,86.76,86.76,0,0,1,1.16-13.17A100.91,100.91,0,0,1,573,363a86.77,86.77,0,0,1,6.68-15.39,60.58,60.58,0,0,1,10.07-13.51,46.57,46.57,0,0,1,13.85-9.59,43.07,43.07,0,0,1,18.1-3.63,31.19,31.19,0,0,1,10.89,1.6,17.6,17.6,0,0,1,6.68,4.21,14,14,0,0,1,3.39,6.05,27.45,27.45,0,0,1,.92,7.12,34.77,34.77,0,0,1-3.78,16,42.72,42.72,0,0,1-10.12,12.92,52.39,52.39,0,0,1-14.57,8.91,53.9,53.9,0,0,1-17.14,4q-0.19,2.23-.34,4.21t-0.14,3.73a31,31,0,0,0,.92,8.28,11.72,11.72,0,0,0,2.71,5.08,9.6,9.6,0,0,0,4.45,2.57,23.87,23.87,0,0,0,6.25.73,34.66,34.66,0,0,0,10.7-1.55,37.42,37.42,0,0,0,9-4.26,50.28,50.28,0,0,0,7.89-6.39q3.73-3.68,7.5-7.84h6.78Zm-54.12-14A26.57,26.57,0,0,0,610.35,369a33,33,0,0,0,9.2-7.31,36.27,36.27,0,0,0,6.34-10.26,31.11,31.11,0,0,0,2.37-12,13.83,13.83,0,0,0-1.06-5.91,3.91,3.91,0,0,0-3.87-2.23q-3.78,0-7.41,3.63a41.69,41.69,0,0,0-6.83,9.44,81,81,0,0,0-5.66,13.12A115.93,115.93,0,0,0,599.5,372.16Z"/><path class="cls-2" d="M639.3,421.73l21-99.14h28.56l-2.52,12.3q2.61-2.32,5.33-4.55a41.24,41.24,0,0,1,5.66-3.92,34,34,0,0,1,6.15-2.76,21.3,21.3,0,0,1,6.78-1.06,13.06,13.06,0,0,1,10.26,4.55,13.6,13.6,0,0,1,2.61,4.74,18.24,18.24,0,0,1,.87,5.62,16,16,0,0,1-.87,5.18,13.41,13.41,0,0,1-2.66,4.6,14,14,0,0,1-4.5,3.34,14.34,14.34,0,0,1-6.29,1.31,8,8,0,0,1-4.31-1,6.5,6.5,0,0,1-2.28-2.42,11.33,11.33,0,0,1-1.11-3.15q-0.34-1.69-.73-3.15a8.39,8.39,0,0,0-1-2.42,2.3,2.3,0,0,0-2.08-1,13.41,13.41,0,0,0-7.65,2.08,57.93,57.93,0,0,0-6.78,5.47l-15.88,75.33H639.3Z"/></svg>